<svg xmlns="http://www.w3.org/2000/svg" style="display: none;" >
<defs>
<symbol viewBox="0 0 162 33" id="katakana-project" >
<path d="M1.18896 22.1154H6.58668C6.82822 24.4284 8.61108 25.8756 11.2618 25.8756C13.5749 25.8756 15.1182 24.7191 15.1182 23.2719C15.1182 17.8742 1.81532 23.0304 1.81532 12.7651C1.81532 8.5239 5.52638 5.5354 10.5393 5.5354C16.2277 5.5354 20.1311 8.66923 20.3727 13.3915H14.9729C14.6372 11.1255 12.5637 9.96902 10.6846 9.96902C8.564 9.96902 7.16596 10.9331 7.16596 12.5727C7.16596 17.8271 20.6633 12.0425 20.6633 23.0324C20.6633 27.6114 16.9523 30.5999 11.2639 30.5999C5.38105 30.5978 1.47758 27.3207 1.18896 22.1154Z"/>
<path d="M28.9451 1.52563V5.91832H34.8545V10.8821H28.9451V21.4872C28.9451 23.9455 30.2469 25.1982 32.4637 25.1982H34.8545V30.2111H31.7882C26.4867 30.2111 23.0151 27.1264 23.0151 21.7287V1.52563H28.9451Z"/>
<path d="M35.3418 18.0666C35.3418 10.8369 40.6433 5.5354 48.0675 5.5354C55.4425 5.5354 60.744 10.8369 60.744 18.0666C60.744 25.2963 55.4425 30.5999 48.0675 30.5999C40.6433 30.5978 35.3418 25.2963 35.3418 18.0666ZM54.767 18.0666C54.767 13.6801 52.0671 10.6445 48.0675 10.6445C44.0187 10.6445 41.3188 13.6821 41.3188 18.0666C41.3188 22.4532 44.0187 25.4887 48.0675 25.4887C52.0671 25.4887 54.767 22.4532 54.767 18.0666Z"/>
<path d="M73.5454 5.53345C80.4291 5.53345 84.1156 9.48604 84.1156 15.1744V30.2131H78.1878V16.4271C78.1878 13.1009 76.583 10.7879 73.5454 10.7879C70.5077 10.7879 68.903 13.1009 68.903 16.4271V30.2131H62.9751V15.1744C62.9751 9.48604 66.6616 5.53345 73.5454 5.53345Z"/>
<path d="M110.001 22.1155C109.086 27.2737 104.554 30.5979 98.5771 30.5979C90.6249 30.5979 86.1892 24.3323 86.1892 17.9685C86.1892 11.5575 90.1418 5.53345 98.0941 5.53345C106.241 5.53345 109.903 11.4613 109.903 17.2459C109.903 18.0647 109.854 18.7893 109.807 19.2703H91.8755C92.3095 23.1738 94.8149 25.6812 98.5751 25.6812C101.613 25.6812 103.588 24.4285 104.214 22.1155H110.001ZM92.0209 15.3668H103.975C103.733 12.2821 101.613 9.96911 98.0941 9.96911C94.7699 9.96911 92.6472 11.7029 92.0209 15.3668Z"/>
<path d="M146.414 13.3201C143.892 13.3201 142.177 15.236 142.177 18.0628C142.177 20.8548 143.892 22.7707 146.414 22.7707C148.936 22.7707 150.651 20.8527 150.651 18.0628C150.651 15.236 148.936 13.3201 146.414 13.3201Z"/>
<path d="M146.618 4.45483H127.862C120.346 4.45483 114.252 10.5485 114.252 18.0648C114.252 25.581 120.346 31.6747 127.862 31.6747H146.618C154.135 31.6747 160.228 25.581 160.228 18.0648C160.228 10.5485 154.135 4.45483 146.618 4.45483ZM127.869 26.8051C122.622 26.8051 119.124 23.004 119.124 18.0607C119.124 13.1174 122.622 9.31626 127.869 9.31626C132.308 9.31626 135.839 12.0059 136.142 15.9421H131.434C131.166 14.4295 129.719 13.318 128.004 13.318C125.482 13.318 124.002 15.3014 124.002 18.0607C124.002 20.8179 125.515 22.7686 128.071 22.7686C129.786 22.7686 131.166 21.7267 131.502 20.212H136.277C135.772 23.9804 132.273 26.8051 127.869 26.8051ZM146.414 26.8051C141.2 26.8051 137.469 23.1063 137.469 18.0607C137.469 13.015 141.202 9.31626 146.414 9.31626C151.627 9.31626 155.359 13.015 155.359 18.0607C155.359 23.1063 151.625 26.8051 146.414 26.8051Z"/>
</symbol>
</defs>
</svg>
