<svg xmlns="http://www.w3.org/2000/svg" width="64" height="64" viewBox="0 0 184 184">
  <style>
    #favicon {
      fill: #111;
      @media (prefers-color-scheme: dark) {
        fill: #fff;
      }
    }
  </style>
  <rect width="184" height="184" rx="20"/>
    <path d="M91.579 13C53.168 13 22 42.683 22 79.27 22 115.89 73.594 171 91.579 171c18.015 0 69.609-55.111 69.609-91.73 0-36.587-31.158-66.27-69.609-66.27Zm-11.15 107.134c-3.148 3.168-14.089-2.701-24.392-13.163C45.714 96.549 39.915 85.508 43.064 82.32c3.139-3.198 18.163-1.786 28.476 8.656 10.292 10.443 12.038 25.939 8.89 29.158Zm22.11-.08c-3.188-3.189-1.53-18.645 8.942-29.078 10.452-10.432 25.723-11.864 28.932-8.656 3.188 3.169-2.7 14.189-13.153 24.611-10.462 10.433-21.532 16.281-24.721 13.123Z"/>
</svg>
